<svg width="1107" height="460" viewBox="0 0 1107 460" fill="none" xmlns="http://www.w3.org/2000/svg">
<path d="M46 89.16V98.2H22.72V112.52H40.56V121.4H22.72V145H11.52V89.16H46ZM75.6219 145.72C71.3552 145.72 67.5152 144.787 64.1019 142.92C60.6885 141 57.9952 138.307 56.0219 134.84C54.1019 131.373 53.1419 127.373 53.1419 122.84C53.1419 118.307 54.1285 114.307 56.1019 110.84C58.1285 107.373 60.8752 104.707 64.3419 102.84C67.8085 100.92 71.6752 99.96 75.9419 99.96C80.2085 99.96 84.0752 100.92 87.5419 102.84C91.0085 104.707 93.7285 107.373 95.7019 110.84C97.7285 114.307 98.7419 118.307 98.7419 122.84C98.7419 127.373 97.7019 131.373 95.6219 134.84C93.5952 138.307 90.8219 141 87.3019 142.92C83.8352 144.787 79.9419 145.72 75.6219 145.72ZM75.6219 135.96C77.6485 135.96 79.5419 135.48 81.3019 134.52C83.1152 133.507 84.5552 132.013 85.6219 130.04C86.6885 128.067 87.2219 125.667 87.2219 122.84C87.2219 118.627 86.1019 115.4 83.8619 113.16C81.6752 110.867 78.9819 109.72 75.7819 109.72C72.5819 109.72 69.8885 110.867 67.7019 113.16C65.5685 115.4 64.5019 118.627 64.5019 122.84C64.5019 127.053 65.5419 130.307 67.6219 132.6C69.7552 134.84 72.4219 135.96 75.6219 135.96ZM120.158 107.56C121.598 105.213 123.464 103.373 125.758 102.04C128.104 100.707 130.771 100.04 133.758 100.04V111.8H130.798C127.278 111.8 124.611 112.627 122.798 114.28C121.038 115.933 120.158 118.813 120.158 122.92V145H108.958V100.68H120.158V107.56ZM198.341 100.04C203.781 100.04 208.155 101.72 211.461 105.08C214.821 108.387 216.501 113.027 216.501 119V145H205.301V120.52C205.301 117.053 204.421 114.413 202.661 112.6C200.901 110.733 198.501 109.8 195.461 109.8C192.421 109.8 189.995 110.733 188.181 112.6C186.421 114.413 185.541 117.053 185.541 120.52V145H174.341V120.52C174.341 117.053 173.461 114.413 171.701 112.6C169.941 110.733 167.541 109.8 164.501 109.8C161.408 109.8 158.955 110.733 157.141 112.6C155.381 114.413 154.501 117.053 154.501 120.52V145H143.301V100.68H154.501V106.04C155.941 104.173 157.781 102.707 160.021 101.64C162.315 100.573 164.821 100.04 167.541 100.04C171.008 100.04 174.101 100.787 176.821 102.28C179.541 103.72 181.648 105.8 183.141 108.52C184.581 105.96 186.661 103.907 189.381 102.36C192.155 100.813 195.141 100.04 198.341 100.04ZM677.875 379.16V388.2H654.595V402.52H672.435V411.4H654.595V435H643.395V379.16H677.875ZM729.657 390.68V435H718.377V429.4C716.937 431.32 715.044 432.84 712.697 433.96C710.404 435.027 707.897 435.56 705.177 435.56C701.71 435.56 698.644 434.84 695.977 433.4C693.31 431.907 691.204 429.747 689.657 426.92C688.164 424.04 687.417 420.627 687.417 416.68V390.68H698.617V415.08C698.617 418.6 699.497 421.32 701.257 423.24C703.017 425.107 705.417 426.04 708.457 426.04C711.55 426.04 713.977 425.107 715.737 423.24C717.497 421.32 718.377 418.6 718.377 415.08V390.68H729.657ZM767.268 390.04C772.548 390.04 776.814 391.72 780.068 395.08C783.321 398.387 784.948 403.027 784.948 409V435H773.748V410.52C773.748 407 772.868 404.307 771.108 402.44C769.348 400.52 766.948 399.56 763.908 399.56C760.814 399.56 758.361 400.52 756.548 402.44C754.788 404.307 753.908 407 753.908 410.52V435H742.708V390.68H753.908V396.2C755.401 394.28 757.294 392.787 759.588 391.72C761.934 390.6 764.494 390.04 767.268 390.04ZM794.718 412.84C794.718 408.253 795.651 404.253 797.518 400.84C799.385 397.373 801.971 394.707 805.278 392.84C808.585 390.92 812.371 389.96 816.638 389.96C822.131 389.96 826.665 391.347 830.238 394.12C833.865 396.84 836.291 400.68 837.518 405.64H825.438C824.798 403.72 823.705 402.227 822.158 401.16C820.665 400.04 818.798 399.48 816.558 399.48C813.358 399.48 810.825 400.653 808.958 403C807.091 405.293 806.158 408.573 806.158 412.84C806.158 417.053 807.091 420.333 808.958 422.68C810.825 424.973 813.358 426.12 816.558 426.12C821.091 426.12 824.051 424.093 825.438 420.04H837.518C836.291 424.84 833.865 428.653 830.238 431.48C826.611 434.307 822.078 435.72 816.638 435.72C812.371 435.72 808.585 434.787 805.278 432.92C801.971 431 799.385 428.333 797.518 424.92C795.651 421.453 794.718 417.427 794.718 412.84ZM860.763 399.88V421.32C860.763 422.813 861.11 423.907 861.803 424.6C862.55 425.24 863.776 425.56 865.483 425.56H870.683V435H863.643C854.203 435 849.483 430.413 849.483 421.24V399.88H844.203V390.68H849.483V379.72H860.763V390.68H870.683V399.88H860.763ZM886.419 385.4C884.445 385.4 882.792 384.787 881.459 383.56C880.179 382.28 879.539 380.707 879.539 378.84C879.539 376.973 880.179 375.427 881.459 374.2C882.792 372.92 884.445 372.28 886.419 372.28C888.392 372.28 890.019 372.92 891.299 374.2C892.632 375.427 893.299 376.973 893.299 378.84C893.299 380.707 892.632 382.28 891.299 383.56C890.019 384.787 888.392 385.4 886.419 385.4ZM891.939 390.68V435H880.739V390.68H891.939ZM924.684 435.72C920.418 435.72 916.578 434.787 913.164 432.92C909.751 431 907.058 428.307 905.084 424.84C903.164 421.373 902.204 417.373 902.204 412.84C902.204 408.307 903.191 404.307 905.164 400.84C907.191 397.373 909.938 394.707 913.404 392.84C916.871 390.92 920.738 389.96 925.004 389.96C929.271 389.96 933.138 390.92 936.604 392.84C940.071 394.707 942.791 397.373 944.764 400.84C946.791 404.307 947.804 408.307 947.804 412.84C947.804 417.373 946.764 421.373 944.684 424.84C942.658 428.307 939.884 431 936.364 432.92C932.898 434.787 929.004 435.72 924.684 435.72ZM924.684 425.96C926.711 425.96 928.604 425.48 930.364 424.52C932.178 423.507 933.618 422.013 934.684 420.04C935.751 418.067 936.284 415.667 936.284 412.84C936.284 408.627 935.164 405.4 932.924 403.16C930.738 400.867 928.044 399.72 924.844 399.72C921.644 399.72 918.951 400.867 916.764 403.16C914.631 405.4 913.564 408.627 913.564 412.84C913.564 417.053 914.604 420.307 916.684 422.6C918.818 424.84 921.484 425.96 924.684 425.96ZM982.58 390.04C987.86 390.04 992.127 391.72 995.38 395.08C998.633 398.387 1000.26 403.027 1000.26 409V435H989.06V410.52C989.06 407 988.18 404.307 986.42 402.44C984.66 400.52 982.26 399.56 979.22 399.56C976.127 399.56 973.673 400.52 971.86 402.44C970.1 404.307 969.22 407 969.22 410.52V435H958.02V390.68H969.22V396.2C970.713 394.28 972.607 392.787 974.9 391.72C977.247 390.6 979.807 390.04 982.58 390.04Z" fill="#FE8D3C"/>
<path d="M340.875 234.16V243.2H317.595V257.52H335.435V266.4H317.595V290H306.395V234.16H340.875ZM370.497 290.72C366.23 290.72 362.39 289.787 358.977 287.92C355.564 286 352.87 283.307 350.897 279.84C348.977 276.373 348.017 272.373 348.017 267.84C348.017 263.307 349.004 259.307 350.977 255.84C353.004 252.373 355.75 249.707 359.217 247.84C362.684 245.92 366.55 244.96 370.817 244.96C375.084 244.96 378.95 245.92 382.417 247.84C385.884 249.707 388.604 252.373 390.577 255.84C392.604 259.307 393.617 263.307 393.617 267.84C393.617 272.373 392.577 276.373 390.497 279.84C388.47 283.307 385.697 286 382.177 287.92C378.71 289.787 374.817 290.72 370.497 290.72ZM370.497 280.96C372.524 280.96 374.417 280.48 376.177 279.52C377.99 278.507 379.43 277.013 380.497 275.04C381.564 273.067 382.097 270.667 382.097 267.84C382.097 263.627 380.977 260.4 378.737 258.16C376.55 255.867 373.857 254.72 370.657 254.72C367.457 254.72 364.764 255.867 362.577 258.16C360.444 260.4 359.377 263.627 359.377 267.84C359.377 272.053 360.417 275.307 362.497 277.6C364.63 279.84 367.297 280.96 370.497 280.96ZM415.033 230.8V290H403.833V230.8H415.033ZM439.298 230.8V290H428.098V230.8H439.298ZM472.044 290.72C467.777 290.72 463.937 289.787 460.524 287.92C457.11 286 454.417 283.307 452.444 279.84C450.524 276.373 449.564 272.373 449.564 267.84C449.564 263.307 450.55 259.307 452.524 255.84C454.55 252.373 457.297 249.707 460.764 247.84C464.23 245.92 468.097 244.96 472.364 244.96C476.63 244.96 480.497 245.92 483.964 247.84C487.43 249.707 490.15 252.373 492.124 255.84C494.15 259.307 495.164 263.307 495.164 267.84C495.164 272.373 494.124 276.373 492.044 279.84C490.017 283.307 487.244 286 483.724 287.92C480.257 289.787 476.364 290.72 472.044 290.72ZM472.044 280.96C474.07 280.96 475.964 280.48 477.724 279.52C479.537 278.507 480.977 277.013 482.044 275.04C483.11 273.067 483.644 270.667 483.644 267.84C483.644 263.627 482.524 260.4 480.284 258.16C478.097 255.867 475.404 254.72 472.204 254.72C469.004 254.72 466.31 255.867 464.124 258.16C461.99 260.4 460.924 263.627 460.924 267.84C460.924 272.053 461.964 275.307 464.044 277.6C466.177 279.84 468.844 280.96 472.044 280.96ZM566.819 245.68L553.859 290H541.779L533.699 259.04L525.619 290H513.459L500.419 245.68H511.779L519.619 279.44L528.099 245.68H539.939L548.259 279.36L556.099 245.68H566.819ZM591.839 290.72C588.213 290.72 584.959 290.08 582.079 288.8C579.199 287.467 576.906 285.68 575.199 283.44C573.546 281.2 572.639 278.72 572.479 276H583.759C583.973 277.707 584.799 279.12 586.239 280.24C587.733 281.36 589.573 281.92 591.759 281.92C593.893 281.92 595.546 281.493 596.719 280.64C597.946 279.787 598.559 278.693 598.559 277.36C598.559 275.92 597.813 274.853 596.319 274.16C594.879 273.413 592.559 272.613 589.359 271.76C586.053 270.96 583.333 270.133 581.199 269.28C579.119 268.427 577.306 267.12 575.759 265.36C574.266 263.6 573.519 261.227 573.519 258.24C573.519 255.787 574.213 253.547 575.599 251.52C577.039 249.493 579.066 247.893 581.679 246.72C584.346 245.547 587.466 244.96 591.039 244.96C596.319 244.96 600.533 246.293 603.679 248.96C606.826 251.573 608.559 255.12 608.879 259.6H598.159C597.999 257.84 597.253 256.453 595.919 255.44C594.639 254.373 592.906 253.84 590.719 253.84C588.693 253.84 587.119 254.213 585.999 254.96C584.933 255.707 584.399 256.747 584.399 258.08C584.399 259.573 585.146 260.72 586.639 261.52C588.133 262.267 590.453 263.04 593.599 263.84C596.799 264.64 599.439 265.467 601.519 266.32C603.599 267.173 605.386 268.507 606.879 270.32C608.426 272.08 609.226 274.427 609.279 277.36C609.279 279.92 608.559 282.213 607.119 284.24C605.733 286.267 603.706 287.867 601.039 289.04C598.426 290.16 595.359 290.72 591.839 290.72Z" fill="#333333"/>
<g filter="url(#filter0_f)">
<rect width="212.638" height="287.624" rx="5.69615" transform="matrix(0.866025 0.5 -0.866025 0.5 894.625 77.9277)" fill="url(#paint0_linear)" fill-opacity="0.31"/>
</g>
<path fill-rule="evenodd" clip-rule="evenodd" d="M809.375 2.31597C809.418 2.31579 809.459 2.31561 809.499 2.31543L809.499 2.31886C810.266 2.34787 811.078 2.5855 811.888 3.05304L984.563 102.747C987.483 104.433 989.267 108.471 988.548 111.765L959.037 246.885C958.318 250.18 955.367 251.484 952.447 249.798L779.772 150.104C776.851 148.418 775.067 144.38 775.787 141.086L805.297 5.96523C805.612 4.52531 806.352 3.46566 807.331 2.86975L806.634 2.31543C806.681 2.32476 808.289 2.32045 809.269 2.31642C809.304 2.31582 809.34 2.31568 809.375 2.31597Z" fill="#868686"/>
<rect width="211.599" height="150.517" rx="6.10556" transform="matrix(0.866025 0.5 -0.213371 0.976971 804.289 0)" fill="url(#paint1_linear)"/>
<rect width="201.765" height="127.676" transform="matrix(0.866025 0.5 -0.213371 0.976971 806.301 13.0742)" fill="#4374F5"/>
<path fill-rule="evenodd" clip-rule="evenodd" d="M791.923 154.443L791.914 154.438V150.414H784.945L780.214 147.682C776.928 145.786 771.602 145.786 768.317 147.682L654.302 213.509H650.746V217.844H650.76C650.871 218.995 651.687 220.128 653.211 221.007L726.237 263.169L726.565 262.979C727.295 262.558 728.479 262.558 729.209 262.979L751.777 276.009V277.915H751.779L751.778 277.915L824.8 320.075C828.086 321.972 833.412 321.972 836.697 320.075L951.803 253.618C953.45 252.668 954.271 251.421 954.267 250.175H954.272V246.044H950.582L939.348 239.559L936.709 241.082L789.284 155.966L791.746 154.545H791.914V154.448L791.923 154.443Z" fill="url(#paint2_linear)"/>
<path d="M791.936 150.326L780.227 143.566C776.942 141.669 771.615 141.669 768.33 143.566L653.224 210.023C649.939 211.919 649.939 214.995 653.224 216.891L726.25 259.053L726.578 258.863C727.308 258.442 728.492 258.442 729.222 258.863L752.119 272.083C752.849 272.505 752.849 273.188 752.119 273.609L751.791 273.799L824.814 315.959C828.099 317.855 833.425 317.855 836.711 315.959L951.817 249.502C955.102 247.605 955.102 244.53 951.817 242.633L939.361 235.442L936.722 236.966L789.297 151.85L791.936 150.326Z" fill="url(#paint3_linear)"/>
<g filter="url(#filter1_ii)">
<rect width="181.966" height="63.8384" rx="2.28959" transform="matrix(0.866025 0.5 -0.866025 0.5 775.395 154.68)" fill="#747577"/>
</g>
<rect x="-1.13725e-08" y="0.190799" width="98.9785" height="58.796" rx="3.62518" transform="matrix(0.866025 0.5 -0.866025 0.5 752.001 209.441)" fill="url(#paint4_radial)" stroke="#343434" stroke-width="0.381598"/>
<rect width="10.3319" height="10.3319" rx="0.754853" transform="matrix(0.866025 0.5 -0.866025 0.5 775.109 156.159)" fill="url(#paint5_linear)"/>
<rect width="10.3319" height="10.3319" rx="0.754853" transform="matrix(-0.866025 -0.5 -0.866025 0.5 919.087 251.894)" fill="url(#paint6_linear)"/>
<rect width="10.3319" height="10.3319" rx="0.754853" transform="matrix(0.866025 0.5 -0.866025 0.5 786.062 162.482)" fill="url(#paint7_linear)"/>
<rect width="10.3319" height="10.3319" rx="0.754853" transform="matrix(-0.866025 -0.5 -0.866025 0.5 908.134 245.569)" fill="url(#paint8_linear)"/>
<rect width="18.7101" height="10.3319" rx="0.754853" transform="matrix(-0.866025 -0.5 -0.866025 0.5 908.166 258.198)" fill="url(#paint9_linear)"/>
<rect width="10.3319" height="10.3319" rx="0.754853" transform="matrix(0.866025 0.5 -0.866025 0.5 797.017 168.807)" fill="url(#paint10_linear)"/>
<rect width="10.3319" height="10.3319" rx="0.754853" transform="matrix(-0.866025 -0.5 -0.866025 0.5 897.18 239.245)" fill="url(#paint11_linear)"/>
<rect width="10.3319" height="10.3319" rx="0.754853" transform="matrix(-0.866025 -0.5 -0.866025 0.5 889.957 247.686)" fill="url(#paint12_linear)"/>
<rect width="25.1468" height="10.3319" rx="0.754853" transform="matrix(-0.866025 -0.5 -0.866025 0.5 897.245 264.503)" fill="url(#paint13_linear)"/>
<rect width="10.3319" height="10.3319" rx="0.754853" transform="matrix(0.866025 0.5 -0.866025 0.5 807.969 175.13)" fill="url(#paint14_linear)"/>
<rect width="10.3319" height="10.3319" rx="0.754853" transform="matrix(-0.866025 -0.5 -0.866025 0.5 886.227 232.922)" fill="url(#paint15_linear)"/>
<rect width="10.3319" height="10.3319" rx="0.754853" transform="matrix(-0.866025 -0.5 -0.866025 0.5 879.004 241.362)" fill="url(#paint16_linear)"/>
<rect width="10.3319" height="10.3319" rx="0.754853" transform="matrix(-0.866025 -0.5 -0.866025 0.5 873.463 250.772)" fill="url(#paint17_linear)"/>
<rect width="10.3319" height="10.3319" rx="0.754853" transform="matrix(-0.866025 -0.5 -0.866025 0.5 853.78 252.018)" fill="url(#paint18_linear)"/>
<rect width="10.3319" height="5.40846" rx="0.754853" transform="matrix(-0.866025 -0.5 -0.866025 0.5 860.468 260.803)" fill="url(#paint19_linear)"/>
<rect width="10.3319" height="10.3319" rx="0.754853" transform="matrix(-0.866025 -0.5 -0.866025 0.5 875.686 264.665)" fill="url(#paint20_linear)"/>
<rect width="10.3319" height="5.40836" rx="0.754853" transform="matrix(-0.866025 -0.5 -0.866025 0.5 882.061 273.27)" fill="url(#paint21_linear)"/>
<rect width="10.3319" height="10.3319" rx="0.754853" transform="matrix(0.866025 0.5 -0.866025 0.5 818.923 181.454)" fill="url(#paint22_linear)"/>
<rect width="10.3319" height="10.3319" rx="0.754853" transform="matrix(-0.866025 -0.5 -0.866025 0.5 875.273 226.598)" fill="url(#paint23_linear)"/>
<rect width="10.3319" height="10.3319" rx="0.754853" transform="matrix(-0.866025 -0.5 -0.866025 0.5 868.051 235.037)" fill="url(#paint24_linear)"/>
<rect width="10.3319" height="10.3319" rx="0.754853" transform="matrix(-0.866025 -0.5 -0.866025 0.5 862.509 244.447)" fill="url(#paint25_linear)"/>
<rect width="12.6475" height="10.3319" rx="0.754853" transform="matrix(-0.866025 -0.5 -0.866025 0.5 842.827 245.693)" fill="url(#paint26_linear)"/>
<rect width="12.6475" height="10.3319" rx="0.754853" transform="matrix(-0.866025 -0.5 -0.866025 0.5 775.37 206.747)" fill="url(#paint27_linear)"/>
<rect width="60.3999" height="10.3319" rx="0.754853" transform="matrix(-0.866025 -0.5 -0.866025 0.5 829.682 238.104)" fill="url(#paint28_linear)"/>
<rect width="10.3319" height="10.3319" rx="0.754853" transform="matrix(0.866025 0.5 -0.866025 0.5 829.875 187.778)" fill="url(#paint29_linear)"/>
<rect width="10.3319" height="10.3319" rx="0.754853" transform="matrix(-0.866025 -0.5 -0.866025 0.5 864.321 220.274)" fill="url(#paint30_linear)"/>
<rect width="10.3319" height="10.3319" rx="0.754853" transform="matrix(-0.866025 -0.5 -0.866025 0.5 857.099 228.715)" fill="url(#paint31_linear)"/>
<rect width="10.3319" height="10.3319" rx="0.754853" transform="matrix(-0.866025 -0.5 -0.866025 0.5 851.556 238.124)" fill="url(#paint32_linear)"/>
<rect width="10.3319" height="10.3319" rx="0.754853" transform="matrix(0.866025 0.5 -0.866025 0.5 840.829 194.103)" fill="url(#paint33_linear)"/>
<rect width="10.3319" height="10.3319" rx="0.754853" transform="matrix(-0.866025 -0.5 -0.866025 0.5 853.369 213.951)" fill="url(#paint34_linear)"/>
<rect width="10.3319" height="10.3319" rx="0.754853" transform="matrix(-0.866025 -0.5 -0.866025 0.5 846.144 222.391)" fill="url(#paint35_linear)"/>
<rect width="10.3319" height="10.3319" rx="0.754853" transform="matrix(-0.866025 -0.5 -0.866025 0.5 840.602 231.801)" fill="url(#paint36_linear)"/>
<rect width="10.3319" height="10.3319" rx="0.754853" transform="matrix(0.866025 0.5 -0.866025 0.5 851.781 200.424)" fill="url(#paint37_linear)"/>
<rect width="10.3319" height="10.3319" rx="0.754853" transform="matrix(-0.866025 -0.5 -0.866025 0.5 842.415 207.627)" fill="url(#paint38_linear)"/>
<rect width="10.3319" height="10.3319" rx="0.754853" transform="matrix(-0.866025 -0.5 -0.866025 0.5 835.192 216.066)" fill="url(#paint39_linear)"/>
<rect width="10.3319" height="10.3319" rx="0.754853" transform="matrix(-0.866025 -0.5 -0.866025 0.5 829.65 225.477)" fill="url(#paint40_linear)"/>
<rect width="10.3319" height="10.3319" rx="0.754853" transform="matrix(0.866025 0.5 -0.866025 0.5 862.736 206.75)" fill="url(#paint41_linear)"/>
<rect width="10.3319" height="10.3319" rx="0.754853" transform="matrix(-0.866025 -0.5 -0.866025 0.5 831.462 201.303)" fill="url(#paint42_linear)"/>
<rect width="10.3319" height="10.3319" rx="0.754853" transform="matrix(-0.866025 -0.5 -0.866025 0.5 824.238 209.742)" fill="url(#paint43_linear)"/>
<rect width="10.3319" height="10.3319" rx="0.754853" transform="matrix(-0.866025 -0.5 -0.866025 0.5 818.696 219.152)" fill="url(#paint44_linear)"/>
<rect width="10.3319" height="10.3319" rx="0.754853" transform="matrix(0.866025 0.5 -0.866025 0.5 873.689 213.072)" fill="url(#paint45_linear)"/>
<rect width="10.3319" height="10.3319" rx="0.754853" transform="matrix(-0.866025 -0.5 -0.866025 0.5 820.507 194.979)" fill="url(#paint46_linear)"/>
<rect width="10.3319" height="10.3319" rx="0.754853" transform="matrix(-0.866025 -0.5 -0.866025 0.5 813.286 203.419)" fill="url(#paint47_linear)"/>
<rect width="10.3319" height="10.3319" rx="0.754853" transform="matrix(-0.866025 -0.5 -0.866025 0.5 807.744 212.829)" fill="url(#paint48_linear)"/>
<rect width="10.3319" height="10.3319" rx="0.754853" transform="matrix(0.866025 0.5 -0.866025 0.5 884.641 219.396)" fill="url(#paint49_linear)"/>
<rect width="10.3319" height="10.3319" rx="0.754853" transform="matrix(-0.866025 -0.5 -0.866025 0.5 809.556 188.655)" fill="url(#paint50_linear)"/>
<rect width="10.3319" height="10.3319" rx="0.754853" transform="matrix(-0.866025 -0.5 -0.866025 0.5 802.334 197.096)" fill="url(#paint51_linear)"/>
<rect width="10.3319" height="10.3319" rx="0.754853" transform="matrix(-0.866025 -0.5 -0.866025 0.5 796.791 206.506)" fill="url(#paint52_linear)"/>
<rect width="10.3319" height="10.3319" rx="0.754853" transform="matrix(0.866025 0.5 -0.866025 0.5 895.595 225.72)" fill="url(#paint53_linear)"/>
<rect width="10.3319" height="10.3319" rx="0.754853" transform="matrix(-0.866025 -0.5 -0.866025 0.5 798.601 182.331)" fill="url(#paint54_linear)"/>
<rect width="10.3319" height="10.3319" rx="0.754853" transform="matrix(-0.866025 -0.5 -0.866025 0.5 791.379 190.771)" fill="url(#paint55_linear)"/>
<rect width="10.3319" height="10.3319" rx="0.754853" transform="matrix(-0.866025 -0.5 -0.866025 0.5 785.837 200.183)" fill="url(#paint56_linear)"/>
<rect width="10.3319" height="10.3319" rx="0.754853" transform="matrix(-0.866025 -0.5 -0.866025 0.5 751.457 192.942)" fill="url(#paint57_linear)"/>
<rect width="10.3319" height="10.3319" rx="0.754853" transform="matrix(-0.866025 -0.5 -0.866025 0.5 762.412 199.266)" fill="url(#paint58_linear)"/>
<rect width="10.3319" height="10.3319" rx="0.754853" transform="matrix(0.866025 0.5 -0.866025 0.5 906.547 232.044)" fill="url(#paint59_linear)"/>
<rect width="10.3319" height="10.3319" rx="0.754853" transform="matrix(-0.866025 -0.5 -0.866025 0.5 787.648 176.007)" fill="url(#paint60_linear)"/>
<rect width="10.3319" height="10.3319" rx="0.754853" transform="matrix(-0.866025 -0.5 -0.866025 0.5 780.426 184.447)" fill="url(#paint61_linear)"/>
<rect width="10.3319" height="10.3319" rx="0.754853" transform="matrix(-0.866025 -0.5 -0.866025 0.5 774.885 193.856)" fill="url(#paint62_linear)"/>
<rect width="10.3319" height="10.3319" rx="0.754853" transform="matrix(-0.866025 -0.5 -0.866025 0.5 740.506 186.618)" fill="url(#paint63_linear)"/>
<rect width="14.4405" height="10.3319" rx="0.754853" transform="matrix(0.866025 0.5 -0.866025 0.5 917.5 238.368)" fill="url(#paint64_linear)"/>
<rect width="14.4405" height="10.3319" rx="0.754853" transform="matrix(-0.866025 -0.5 -0.866025 0.5 776.695 169.685)" fill="url(#paint65_linear)"/>
<rect width="18.7099" height="10.3319" rx="0.754853" transform="matrix(-0.866025 -0.5 -0.866025 0.5 769.473 178.123)" fill="url(#paint66_linear)"/>
<rect width="24.9208" height="10.3319" rx="0.754853" transform="matrix(-0.866025 -0.5 -0.866025 0.5 763.93 187.535)" fill="url(#paint67_linear)"/>
<rect width="7.73515" height="60.7708" transform="matrix(0.866025 0.5 -0.866025 0.5 762.962 149.145)" fill="#4E4E4E" fill-opacity="0.47"/>
<rect width="7.73515" height="60.7708" transform="matrix(0.866025 0.5 -0.866025 0.5 935.583 248.807)" fill="#4E4E4E" fill-opacity="0.47"/>
<circle r="1.9116" transform="matrix(0.866025 0.5 -0.301205 0.953559 897.137 59.972)" fill="#242424"/>
<circle r="0.366936" transform="matrix(0.866025 0.5 -0.301205 0.953559 897.565 60.1369)" fill="#838383"/>
<circle r="1.264" transform="matrix(0.866025 0.5 -0.301205 0.953559 896.852 59.5658)" fill="url(#paint68_radial)"/>
<circle r="0.134847" transform="matrix(0.866025 0.5 -0.301205 0.953559 896.659 58.6775)" fill="white"/>
<path fill-rule="evenodd" clip-rule="evenodd" d="M721.986 256.622L652.842 216.925L653.032 216.594L722.176 256.291L721.986 256.622Z" fill="url(#paint69_linear)"/>
<path fill-rule="evenodd" clip-rule="evenodd" d="M824.327 315.469L755.182 275.771L755.372 275.44L824.517 315.138L824.327 315.469Z" fill="url(#paint70_linear)"/>
<path fill-rule="evenodd" clip-rule="evenodd" d="M879.366 43.3771L810.222 3.67957L810.412 3.34863L879.556 43.0461L879.366 43.3771Z" fill="url(#paint71_linear)"/>
<path d="M813.866 5.34757C813.866 5.64146 813.627 5.8797 813.334 5.8797C813.04 5.8797 812.801 5.64146 812.801 5.34757C812.801 5.05368 813.04 4.81543 813.334 4.81543C813.627 4.81543 813.866 5.05368 813.866 5.34757Z" fill="white"/>
<g opacity="0.39" filter="url(#filter2_f)">
<path fill-rule="evenodd" clip-rule="evenodd" d="M777.115 142.867L817.848 220.474L908.5 274.299L951.019 249.751C954.304 247.854 954.304 244.779 951.019 242.882L938.564 235.691L935.925 237.214L788.5 152.098L791.139 150.575L779.429 143.815C778.736 143.414 777.952 143.099 777.115 142.867Z" fill="url(#paint72_linear)"/>
</g>
<rect width="160.141" height="82.467" rx="5.16531" transform="matrix(-0.866025 -0.5 -2.20305e-08 1 851.072 111.22)" fill="#F4F4F4"/>
<g filter="url(#filter3_d)">
<rect width="40.07" height="63.5778" rx="1.72177" transform="matrix(-0.866025 -0.5 -2.20305e-08 1 754.054 66.2324)" fill="white"/>
</g>
<g filter="url(#filter4_d)">
<rect width="40.07" height="63.5778" rx="1.72177" transform="matrix(-0.866025 -0.5 -2.20305e-08 1 794.045 90.1016)" fill="white"/>
</g>
<g filter="url(#filter5_d)">
<rect width="40.07" height="63.5778" rx="1.72177" transform="matrix(-0.866025 -0.5 -2.20305e-08 1 834.265 112.585)" fill="white"/>
</g>
<g filter="url(#filter6_f)">
<rect width="117.8" height="163.061" rx="5.07264" transform="matrix(-0.866025 0.5 0.866025 0.5 118.43 302.569)" fill="#2C3B48" fill-opacity="0.31"/>
</g>
<path fill-rule="evenodd" clip-rule="evenodd" d="M125.322 287.17C119.621 283.878 110.377 283.878 104.675 287.17L21.5266 335.176H15.0487V342.614H15.053C15.141 344.701 16.5649 346.774 19.3249 348.368L147.074 422.124C152.776 425.415 162.02 425.415 167.721 422.124L253.071 372.847C255.893 371.218 257.318 369.088 257.347 366.953H257.352V359.592H250.761L125.322 287.17Z" fill="url(#paint73_linear)"/>
<rect width="122.395" height="171.353" rx="11.9207" transform="matrix(-0.866025 0.5 0.866025 0.5 114.997 274)" fill="url(#paint74_linear)"/>
<path d="M9.6013 335.256L146.972 414.567C152.674 417.859 161.918 417.859 167.619 414.567L262.792 359.619" stroke="url(#paint75_linear)" stroke-width="1.01453"/>
<rect width="113.748" height="162.583" rx="8.36985" transform="matrix(-0.866025 0.5 0.866025 0.5 114.958 278.301)" fill="#FF8029"/>
<circle r="0.809211" transform="matrix(-0.866025 0.5 -2.20305e-08 -1 247.511 372.442)" fill="#292929"/>
<circle r="0.809211" transform="matrix(-0.866025 0.5 -2.20305e-08 -1 244.702 374.064)" fill="#292929"/>
<circle r="0.809211" transform="matrix(-0.866025 0.5 -2.20305e-08 -1 241.891 375.687)" fill="#292929"/>
<circle r="0.809211" transform="matrix(-0.866025 0.5 -2.20305e-08 -1 239.079 377.31)" fill="#292929"/>
<circle r="0.809211" transform="matrix(-0.866025 0.5 -2.20305e-08 -1 236.269 378.933)" fill="#292929"/>
<circle r="0.809211" transform="matrix(-0.866025 0.5 -2.20305e-08 -1 233.459 380.556)" fill="#292929"/>
<circle r="0.809211" transform="matrix(-0.866025 0.5 -2.20305e-08 -1 230.648 382.177)" fill="#292929"/>
<circle r="0.81676" transform="matrix(-0.866025 0.5 -2.20305e-08 -1 190.9 405.174)" fill="#292929"/>
<circle r="0.81676" transform="matrix(-0.866025 0.5 -2.20305e-08 -1 188.063 406.812)" fill="#292929"/>
<circle r="0.81676" transform="matrix(-0.866025 0.5 -2.20305e-08 -1 185.226 408.45)" fill="#292929"/>
<circle r="0.81676" transform="matrix(-0.866025 0.5 -2.20305e-08 -1 182.389 410.088)" fill="#292929"/>
<circle r="0.81676" transform="matrix(-0.866025 0.5 -2.20305e-08 -1 179.553 411.726)" fill="#292929"/>
<circle r="0.81676" transform="matrix(-0.866025 0.5 -2.20305e-08 -1 176.716 413.363)" fill="#292929"/>
<circle r="0.81676" transform="matrix(-0.866025 0.5 -2.20305e-08 -1 173.878 415.001)" fill="#292929"/>
<path d="M42.7724 358.52C42.7724 359.425 43.4078 360.526 44.1916 360.978L49.9987 364.331C50.3237 364.519 50.6232 364.565 50.8625 364.491C50.9314 364.47 50.9953 364.439 51.0534 364.398C51.1152 364.354 51.1704 364.3 51.2181 364.235C51.345 364.063 51.418 363.818 51.418 363.512C51.418 362.607 50.7825 361.506 49.9987 361.053L44.1916 357.701C43.773 357.459 43.3968 357.451 43.137 357.634C43.0775 357.676 43.0241 357.728 42.9777 357.789C42.9293 357.853 42.8885 357.928 42.8564 358.012C42.802 358.154 42.7724 358.325 42.7724 358.52Z" fill="url(#paint76_linear)"/>
<path d="M42.3009 358.992C42.3009 359.897 42.9363 360.997 43.7201 361.45L49.5272 364.803C49.935 365.038 50.3026 365.052 50.5615 364.883C50.6385 364.833 50.7058 364.767 50.7617 364.686C50.8012 364.628 50.835 364.563 50.8625 364.491C50.9168 364.349 50.9465 364.179 50.9465 363.983C50.9465 363.078 50.311 361.977 49.5272 361.525L43.7201 358.172C43.3951 357.985 43.0956 357.938 42.8564 358.012C42.7538 358.044 42.6623 358.098 42.5846 358.172C42.4064 358.343 42.3009 358.623 42.3009 358.992Z" fill="url(#paint77_linear)"/>
<path d="M42.8564 358.012C42.7538 358.044 42.6623 358.098 42.5846 358.172L42.9777 357.789C42.9293 357.853 42.8885 357.928 42.8564 358.012Z" fill="url(#paint78_linear)"/>
<path d="M50.7617 364.686C50.8012 364.628 50.835 364.563 50.8625 364.491C50.9314 364.47 50.9953 364.439 51.0534 364.398L50.7617 364.686Z" fill="url(#paint79_linear)"/>
<path d="M42.7724 358.52C42.7724 359.425 43.4078 360.526 44.1916 360.978L49.9987 364.331C50.7825 364.784 51.418 364.417 51.418 363.512C51.418 362.607 50.7825 361.506 49.9987 361.053L44.1916 357.701C43.4078 357.248 42.7724 357.615 42.7724 358.52Z" fill="url(#paint80_linear)"/>
<rect width="9.98308" height="3.27764" rx="1.63882" transform="matrix(0.866025 0.5 2.20305e-08 -1 42.3005 360.631)" fill="#949494"/>
<rect width="10.2005" height="2.40173" rx="1.20086" transform="matrix(-0.866025 0.5 -2.20305e-08 -1 216.157 392.137)" fill="url(#paint81_linear)"/>
<path d="M32.7025 352.627C32.7025 353.532 33.3379 354.632 34.1217 355.085L39.9288 358.437C40.2538 358.625 40.5533 358.672 40.7926 358.598C40.8615 358.576 40.9254 358.545 40.9835 358.504C41.0453 358.461 41.1005 358.406 41.1481 358.342C41.2751 358.17 41.3481 357.925 41.3481 357.618C41.3481 356.713 40.7126 355.612 39.9288 355.16L34.1217 351.807C33.7031 351.565 33.3269 351.557 33.0671 351.74C33.0076 351.782 32.9542 351.834 32.9078 351.896C32.8594 351.96 32.8186 352.034 32.7865 352.118C32.7321 352.261 32.7025 352.431 32.7025 352.627Z" fill="url(#paint82_linear)"/>
<path d="M32.231 353.098C32.231 354.003 32.8664 355.104 33.6502 355.556L39.4573 358.909C39.8651 359.144 40.2327 359.158 40.4916 358.99C40.5685 358.939 40.6359 358.873 40.6918 358.792C40.7313 358.735 40.7651 358.67 40.7926 358.598C40.8469 358.455 40.8766 358.285 40.8766 358.09C40.8766 357.184 40.2411 356.084 39.4573 355.631L33.6502 352.279C33.3252 352.091 33.0257 352.044 32.7865 352.118C32.6839 352.15 32.5924 352.204 32.5146 352.279C32.3365 352.45 32.231 352.729 32.231 353.098Z" fill="url(#paint83_linear)"/>
<path d="M32.7865 352.118C32.6839 352.15 32.5924 352.204 32.5146 352.279L32.9078 351.896C32.8594 351.96 32.8186 352.034 32.7865 352.118Z" fill="url(#paint84_linear)"/>
<path d="M40.6918 358.792C40.7313 358.735 40.7651 358.67 40.7926 358.598C40.8615 358.576 40.9254 358.545 40.9835 358.504L40.6918 358.792Z" fill="url(#paint85_linear)"/>
<path d="M32.7025 352.627C32.7025 353.532 33.3379 354.632 34.1217 355.085L39.9288 358.437C40.7126 358.89 41.3481 358.523 41.3481 357.618C41.3481 356.713 40.7126 355.612 39.9288 355.16L34.1217 351.807C33.3379 351.355 32.7025 351.721 32.7025 352.627Z" fill="url(#paint86_linear)"/>
<rect width="9.98308" height="3.27764" rx="1.63882" transform="matrix(0.866025 0.5 2.20305e-08 -1 32.2295 354.737)" fill="#949494"/>
<circle r="0.987211" transform="matrix(-0.866025 0.5 0.866025 0.5 68.5249 302.945)" fill="#181818"/>
<circle r="0.461794" transform="matrix(-0.866025 0.5 0.866025 0.5 68.5249 303.215)" fill="#595959"/>
<circle r="0.987211" transform="matrix(-0.866025 0.5 0.866025 0.5 68.4451 302.945)" fill="url(#paint87_radial)"/>
<circle r="0.0666557" transform="matrix(-1 0 0 1 67.9486 302.654)" fill="white" fill-opacity="0.3"/>
<g filter="url(#filter7_f)">
<rect width="67.8017" height="18.5991" rx="4.65701" transform="matrix(0.866025 0.5 -0.866025 0.5 33.1169 305.113)" fill="#48382C" fill-opacity="0.17"/>
</g>
<g filter="url(#filter8_f)">
<rect width="67.8017" height="18.5991" rx="4.65701" transform="matrix(0.866025 0.5 -0.866025 0.5 56.2868 291.099)" fill="#48382C" fill-opacity="0.17"/>
</g>
<g filter="url(#filter9_f)">
<rect width="67.8017" height="18.5991" rx="4.65701" transform="matrix(0.866025 0.5 -0.866025 0.5 76.8926 279.501)" fill="#48382C" fill-opacity="0.17"/>
</g>
<rect width="105.356" height="22.5104" rx="2.80785" transform="matrix(0.866025 0.5 -0.866025 0.5 77.0182 267)" fill="white"/>
<circle r="5.36709" transform="matrix(0.866025 0.5 -0.866025 0.5 77.8072 278.465)" fill="url(#paint88_linear)"/>
<circle r="1.60033" transform="matrix(0.866025 0.5 -0.866025 0.5 124.226 303.85)" fill="url(#paint89_linear)"/>
<circle r="1.60033" transform="matrix(0.866025 0.5 -0.866025 0.5 118.151 307.358)" fill="url(#paint90_linear)"/>
<circle r="1.60033" transform="matrix(0.866025 0.5 -0.866025 0.5 121.693 309.401)" fill="url(#paint91_linear)"/>
<circle r="1.60033" transform="matrix(0.866025 0.5 -0.866025 0.5 125.589 311.652)" fill="url(#paint92_linear)"/>
<circle r="1.41418" transform="matrix(0.866025 0.5 -0.866025 0.5 77.8072 278.464)" fill="white"/>
<path d="M124.736 298.387L111.886 305.806" stroke="#DCDCDC" stroke-width="0.311983" stroke-linecap="round"/>
<path d="M149.154 312.484L136.304 319.903" stroke="#DCDCDC" stroke-width="0.311983" stroke-linecap="round"/>
<rect width="6.99306" height="1.4326" rx="0.716298" transform="matrix(0.866025 0.5 -0.866025 0.5 92.9009 281.812)" fill="#E0E0E0"/>
<rect width="6.99306" height="1.4326" rx="0.716298" transform="matrix(0.866025 0.5 -0.866025 0.5 126.264 301.073)" fill="#EDEDED"/>
<rect width="6.99306" height="1.4326" rx="0.716298" transform="matrix(0.866025 0.5 -0.866025 0.5 120.189 304.581)" fill="#EDEDED"/>
<rect width="30.2818" height="2.71531" rx="1.35766" transform="matrix(0.866025 0.5 -0.866025 0.5 90.9235 282.953)" fill="#C6C6C6"/>
<rect width="9.11751" height="2.71531" rx="1.35766" transform="matrix(0.866025 0.5 -0.866025 0.5 86.8266 285.319)" fill="#EC8AAE"/>
<rect width="9.11751" height="2.71531" rx="1.35766" transform="matrix(0.866025 0.5 -0.866025 0.5 146.916 317.062)" fill="#EC8AAE"/>
<rect width="105.356" height="22.5104" rx="2.80785" transform="matrix(0.866025 0.5 -0.866025 0.5 55.258 279.563)" fill="white"/>
<circle r="5.36709" transform="matrix(0.866025 0.5 -0.866025 0.5 56.0466 291.028)" fill="url(#paint93_linear)"/>
<circle r="1.60033" transform="matrix(0.866025 0.5 -0.866025 0.5 102.465 316.415)" fill="url(#paint94_linear)"/>
<circle r="1.60033" transform="matrix(0.866025 0.5 -0.866025 0.5 96.3895 319.922)" fill="url(#paint95_linear)"/>
<circle r="1.41418" transform="matrix(0.866025 0.5 -0.866025 0.5 56.0466 291.028)" fill="white"/>
<path d="M102.974 310.95L90.124 318.369" stroke="#DCDCDC" stroke-width="0.311983" stroke-linecap="round"/>
<path d="M127.393 325.048L114.543 332.467" stroke="#DCDCDC" stroke-width="0.311983" stroke-linecap="round"/>
<rect width="6.99306" height="1.4326" rx="0.716298" transform="matrix(0.866025 0.5 -0.866025 0.5 71.1393 294.377)" fill="#E0E0E0"/>
<rect width="6.99306" height="1.4326" rx="0.716298" transform="matrix(0.866025 0.5 -0.866025 0.5 104.502 313.638)" fill="#EDEDED"/>
<rect width="6.99306" height="1.4326" rx="0.716298" transform="matrix(0.866025 0.5 -0.866025 0.5 98.4265 317.145)" fill="#EDEDED"/>
<rect width="22.1807" height="2.71531" rx="1.35766" transform="matrix(0.866025 0.5 -0.866025 0.5 69.1619 295.519)" fill="#C6C6C6"/>
<rect width="9.11751" height="2.71531" rx="1.35766" transform="matrix(0.866025 0.5 -0.866025 0.5 65.0651 297.883)" fill="#EC8AAE"/>
<rect width="9.11751" height="2.71531" rx="1.35766" transform="matrix(0.866025 0.5 -0.866025 0.5 125.154 329.626)" fill="#57FFE1"/>
<rect width="105.356" height="22.5104" rx="2.80785" transform="matrix(0.866025 0.5 -0.866025 0.5 33.4957 292.129)" fill="white"/>
<circle r="5.36709" transform="matrix(0.866025 0.5 -0.866025 0.5 34.2841 303.592)" fill="url(#paint96_linear)"/>
<circle r="1.60033" transform="matrix(0.866025 0.5 -0.866025 0.5 80.702 328.977)" fill="url(#paint97_linear)"/>
<circle r="1.60033" transform="matrix(0.866025 0.5 -0.866025 0.5 74.627 332.485)" fill="url(#paint98_linear)"/>
<circle r="1.41418" transform="matrix(0.866025 0.5 -0.866025 0.5 34.2841 303.592)" fill="white"/>
<path d="M81.2116 323.515L68.3615 330.934" stroke="#DCDCDC" stroke-width="0.311983" stroke-linecap="round"/>
<path d="M105.631 337.611L92.7807 345.03" stroke="#DCDCDC" stroke-width="0.311983" stroke-linecap="round"/>
<rect width="6.99306" height="1.4326" rx="0.716298" transform="matrix(0.866025 0.5 -0.866025 0.5 49.3776 306.939)" fill="#E0E0E0"/>
<rect width="6.99306" height="1.4326" rx="0.716298" transform="matrix(0.866025 0.5 -0.866025 0.5 82.7397 326.2)" fill="#EDEDED"/>
<rect width="6.99306" height="1.4326" rx="0.716298" transform="matrix(0.866025 0.5 -0.866025 0.5 76.6648 329.708)" fill="#EDEDED"/>
<rect width="26.0847" height="2.71531" rx="1.35766" transform="matrix(0.866025 0.5 -0.866025 0.5 47.3985 308.082)" fill="#C6C6C6"/>
<rect width="9.11751" height="2.71531" rx="1.35766" transform="matrix(0.866025 0.5 -0.866025 0.5 43.3026 310.446)" fill="#EC8AAE"/>
<rect width="9.11751" height="2.71531" rx="1.35766" transform="matrix(0.866025 0.5 -0.866025 0.5 103.392 342.19)" fill="#EC8AAE"/>
<defs>
<filter id="filter0_f" x="642.701" y="73.8717" width="438.909" height="258.243" filterUnits="userSpaceOnUse" color-interpolation-filters="sRGB">
<feFlood flood-opacity="0" result="BackgroundImageFix"/>
<feBlend mode="normal" in="SourceGraphic" in2="BackgroundImageFix" result="shape"/>
<feGaussianBlur stdDeviation="2.86198" result="effect1_foregroundBlur"/>
</filter>
<filter id="filter1_ii" x="721.271" y="155.351" width="210.55" height="121.943" filterUnits="userSpaceOnUse" color-interpolation-filters="sRGB">
<feFlood flood-opacity="0" result="BackgroundImageFix"/>
<feBlend mode="normal" in="SourceGraphic" in2="BackgroundImageFix" result="shape"/>
<feColorMatrix in="SourceAlpha" type="matrix" values="0 0 0 0 0 0 0 0 0 0 0 0 0 0 0 0 0 0 127 0" result="hardAlpha"/>
<feOffset/>
<feGaussianBlur stdDeviation="0.763195"/>
<feComposite in2="hardAlpha" operator="arithmetic" k2="-1" k3="1"/>
<feColorMatrix type="matrix" values="0 0 0 0 0.0903861 0 0 0 0 0.0762847 0 0 0 0 0.108333 0 0 0 0.69 0"/>
<feBlend mode="normal" in2="shape" result="effect1_innerShadow"/>
<feColorMatrix in="SourceAlpha" type="matrix" values="0 0 0 0 0 0 0 0 0 0 0 0 0 0 0 0 0 0 127 0" result="hardAlpha"/>
<feMorphology radius="0.763195" operator="dilate" in="SourceAlpha" result="effect2_innerShadow"/>
<feOffset dy="0.763195"/>
<feGaussianBlur stdDeviation="0.572396"/>
<feComposite in2="hardAlpha" operator="arithmetic" k2="-1" k3="1"/>
<feColorMatrix type="matrix" values="0 0 0 0 1 0 0 0 0 1 0 0 0 0 1 0 0 0 1 0"/>
<feBlend mode="normal" in2="effect1_innerShadow" result="effect2_innerShadow"/>
</filter>
<filter id="filter2_f" x="770.628" y="136.38" width="189.342" height="144.406" filterUnits="userSpaceOnUse" color-interpolation-filters="sRGB">
<feFlood flood-opacity="0" result="BackgroundImageFix"/>
<feBlend mode="normal" in="SourceGraphic" in2="BackgroundImageFix" result="shape"/>
<feGaussianBlur stdDeviation="3.24358" result="effect1_foregroundBlur"/>
</filter>
<filter id="filter3_d" x="712.465" y="37.0978" width="57.6586" height="105.255" filterUnits="userSpaceOnUse" color-interpolation-filters="sRGB">
<feFlood flood-opacity="0" result="BackgroundImageFix"/>
<feColorMatrix in="SourceAlpha" type="matrix" values="0 0 0 0 0 0 0 0 0 0 0 0 0 0 0 0 0 0 127 0"/>
<feOffset dx="4.59139" dy="1.72177"/>
<feGaussianBlur stdDeviation="5.73923"/>
<feColorMatrix type="matrix" values="0 0 0 0 0.0794271 0 0 0 0 0.0893229 0 0 0 0 0.104167 0 0 0 0.25 0"/>
<feBlend mode="normal" in2="BackgroundImageFix" result="effect1_dropShadow"/>
<feBlend mode="normal" in="SourceGraphic" in2="effect1_dropShadow" result="shape"/>
</filter>
<filter id="filter4_d" x="752.456" y="60.9669" width="57.6586" height="105.255" filterUnits="userSpaceOnUse" color-interpolation-filters="sRGB">
<feFlood flood-opacity="0" result="BackgroundImageFix"/>
<feColorMatrix in="SourceAlpha" type="matrix" values="0 0 0 0 0 0 0 0 0 0 0 0 0 0 0 0 0 0 127 0"/>
<feOffset dx="4.59139" dy="1.72177"/>
<feGaussianBlur stdDeviation="5.73923"/>
<feColorMatrix type="matrix" values="0 0 0 0 0.0794271 0 0 0 0 0.0893229 0 0 0 0 0.104167 0 0 0 0.25 0"/>
<feBlend mode="normal" in2="BackgroundImageFix" result="effect1_dropShadow"/>
<feBlend mode="normal" in="SourceGraphic" in2="effect1_dropShadow" result="shape"/>
</filter>
<filter id="filter5_d" x="792.677" y="83.4503" width="57.6586" height="105.255" filterUnits="userSpaceOnUse" color-interpolation-filters="sRGB">
<feFlood flood-opacity="0" result="BackgroundImageFix"/>
<feColorMatrix in="SourceAlpha" type="matrix" values="0 0 0 0 0 0 0 0 0 0 0 0 0 0 0 0 0 0 127 0"/>
<feOffset dx="4.59139" dy="1.72177"/>
<feGaussianBlur stdDeviation="5.73923"/>
<feColorMatrix type="matrix" values="0 0 0 0 0.0794271 0 0 0 0 0.0893229 0 0 0 0 0.104167 0 0 0 0.25 0"/>
<feBlend mode="normal" in2="BackgroundImageFix" result="effect1_dropShadow"/>
<feBlend mode="normal" in="SourceGraphic" in2="effect1_dropShadow" result="shape"/>
</filter>
<filter id="filter6_f" x="0.585941" y="285.655" width="274.885" height="174.258" filterUnits="userSpaceOnUse" color-interpolation-filters="sRGB">
<feFlood flood-opacity="0" result="BackgroundImageFix"/>
<feBlend mode="normal" in="SourceGraphic" in2="BackgroundImageFix" result="shape"/>
<feGaussianBlur stdDeviation="9.1998" result="effect1_foregroundBlur"/>
</filter>
<filter id="filter7_f" x="10.5238" y="297.629" width="87.7969" height="58.1691" filterUnits="userSpaceOnUse" color-interpolation-filters="sRGB">
<feFlood flood-opacity="0" result="BackgroundImageFix"/>
<feBlend mode="normal" in="SourceGraphic" in2="BackgroundImageFix" result="shape"/>
<feGaussianBlur stdDeviation="4.42416" result="effect1_foregroundBlur"/>
</filter>
<filter id="filter8_f" x="33.6937" y="283.615" width="87.7969" height="58.1691" filterUnits="userSpaceOnUse" color-interpolation-filters="sRGB">
<feFlood flood-opacity="0" result="BackgroundImageFix"/>
<feBlend mode="normal" in="SourceGraphic" in2="BackgroundImageFix" result="shape"/>
<feGaussianBlur stdDeviation="4.42416" result="effect1_foregroundBlur"/>
</filter>
<filter id="filter9_f" x="54.2995" y="272.017" width="87.7969" height="58.1691" filterUnits="userSpaceOnUse" color-interpolation-filters="sRGB">
<feFlood flood-opacity="0" result="BackgroundImageFix"/>
<feBlend mode="normal" in="SourceGraphic" in2="BackgroundImageFix" result="shape"/>
<feGaussianBlur stdDeviation="4.42416" result="effect1_foregroundBlur"/>
</filter>
<linearGradient id="paint0_linear" x1="106.319" y1="0" x2="106.319" y2="287.624" gradientUnits="userSpaceOnUse">
<stop stop-opacity="0"/>
<stop offset="0.0001" stop-opacity="0"/>
<stop offset="0.614583" stop-color="#2C4348"/>
</linearGradient>
<linearGradient id="paint1_linear" x1="13.2236" y1="6.65452" x2="149.008" y2="188.974" gradientUnits="userSpaceOnUse">
<stop stop-color="#0D0D0D"/>
<stop offset="0.484375" stop-color="#262626"/>
<stop offset="0.541667" stop-color="#0E0E0E"/>
<stop offset="1" stop-color="#272425"/>
</linearGradient>
<linearGradient id="paint2_linear" x1="953.011" y1="217.942" x2="650.746" y2="217.942" gradientUnits="userSpaceOnUse">
<stop stop-color="#2E2E2E"/>
<stop offset="0.0152179" stop-color="#454B50"/>
<stop offset="0.0909353" stop-color="#485666"/>
<stop offset="0.351348" stop-color="#44474D"/>
<stop offset="0.402508" stop-color="#848484"/>
<stop offset="0.446897" stop-color="#525353"/>
<stop offset="0.662573" stop-color="#767676"/>
<stop offset="0.666513" stop-color="#6E7276"/>
<stop offset="0.717302" stop-color="#545557"/>
<stop offset="0.750578" stop-color="#383B44"/>
<stop offset="0.754519" stop-color="#4B5359"/>
<stop offset="0.976451" stop-color="#565759"/>
<stop offset="1" stop-color="#979797"/>
</linearGradient>
<linearGradient id="paint3_linear" x1="663.59" y1="165.023" x2="920.184" y2="75.6577" gradientUnits="userSpaceOnUse">
<stop stop-color="#606872"/>
<stop offset="0.271874" stop-color="#6F7275"/>
<stop offset="0.612224" stop-color="#585F67"/>
<stop offset="0.998493" stop-color="#697078"/>
</linearGradient>
<radialGradient id="paint4_radial" cx="0" cy="0" r="1" gradientUnits="userSpaceOnUse" gradientTransform="translate(49.68 29.5888) rotate(90) scale(29.5888 49.68)">
<stop stop-color="#72757B" stop-opacity="0.76"/>
<stop offset="1" stop-color="#545860" stop-opacity="0.7"/>
</radialGradient>
<linearGradient id="paint5_linear" x1="5.16595" y1="0" x2="5.16595" y2="10.3319" gradientUnits="userSpaceOnUse">
<stop stop-color="#1B1B1B"/>
<stop offset="0.869792"/>
<stop offset="1" stop-color="#3A3A3A"/>
</linearGradient>
<linearGradient id="paint6_linear" x1="5.16595" y1="0" x2="5.16595" y2="10.3319" gradientUnits="userSpaceOnUse">
<stop stop-color="#1B1B1B"/>
<stop offset="0.869792"/>
<stop offset="1" stop-color="#3A3A3A"/>
</linearGradient>
<linearGradient id="paint7_linear" x1="5.16595" y1="0" x2="5.16595" y2="10.3319" gradientUnits="userSpaceOnUse">
<stop stop-color="#1B1B1B"/>
<stop offset="0.869792"/>
<stop offset="1" stop-color="#3A3A3A"/>
</linearGradient>
<linearGradient id="paint8_linear" x1="5.16595" y1="0" x2="5.16595" y2="10.3319" gradientUnits="userSpaceOnUse">
<stop stop-color="#1B1B1B"/>
<stop offset="0.869792"/>
<stop offset="1" stop-color="#3A3A3A"/>
</linearGradient>
<linearGradient id="paint9_linear" x1="9.35507" y1="0" x2="9.35507" y2="10.3319" gradientUnits="userSpaceOnUse">
<stop stop-color="#1B1B1B"/>
<stop offset="0.869792"/>
<stop offset="1" stop-color="#3A3A3A"/>
</linearGradient>
<linearGradient id="paint10_linear" x1="5.16595" y1="0" x2="5.16595" y2="10.3319" gradientUnits="userSpaceOnUse">
<stop stop-color="#1B1B1B"/>
<stop offset="0.869792"/>
<stop offset="1" stop-color="#3A3A3A"/>
</linearGradient>
<linearGradient id="paint11_linear" x1="5.16595" y1="0" x2="5.16595" y2="10.3319" gradientUnits="userSpaceOnUse">
<stop stop-color="#1B1B1B"/>
<stop offset="0.869792"/>
<stop offset="1" stop-color="#3A3A3A"/>
</linearGradient>
<linearGradient id="paint12_linear" x1="5.16595" y1="0" x2="5.16595" y2="10.3319" gradientUnits="userSpaceOnUse">
<stop stop-color="#1B1B1B"/>
<stop offset="0.869792"/>
<stop offset="1" stop-color="#3A3A3A"/>
</linearGradient>
<linearGradient id="paint13_linear" x1="12.5734" y1="0" x2="12.5734" y2="10.3319" gradientUnits="userSpaceOnUse">
<stop stop-color="#1B1B1B"/>
<stop offset="0.869792"/>
<stop offset="1" stop-color="#3A3A3A"/>
</linearGradient>
<linearGradient id="paint14_linear" x1="5.16595" y1="0" x2="5.16595" y2="10.3319" gradientUnits="userSpaceOnUse">
<stop stop-color="#1B1B1B"/>
<stop offset="0.869792"/>
<stop offset="1" stop-color="#3A3A3A"/>
</linearGradient>
<linearGradient id="paint15_linear" x1="5.16595" y1="0" x2="5.16595" y2="10.3319" gradientUnits="userSpaceOnUse">
<stop stop-color="#1B1B1B"/>
<stop offset="0.869792"/>
<stop offset="1" stop-color="#3A3A3A"/>
</linearGradient>
<linearGradient id="paint16_linear" x1="5.16595" y1="0" x2="5.16595" y2="10.3319" gradientUnits="userSpaceOnUse">
<stop stop-color="#1B1B1B"/>
<stop offset="0.869792"/>
<stop offset="1" stop-color="#3A3A3A"/>
</linearGradient>
<linearGradient id="paint17_linear" x1="5.16595" y1="0" x2="5.16595" y2="10.3319" gradientUnits="userSpaceOnUse">
<stop stop-color="#1B1B1B"/>
<stop offset="0.869792"/>
<stop offset="1" stop-color="#3A3A3A"/>
</linearGradient>
<linearGradient id="paint18_linear" x1="5.16595" y1="0" x2="5.16595" y2="10.3319" gradientUnits="userSpaceOnUse">
<stop stop-color="#1B1B1B"/>
<stop offset="0.869792"/>
<stop offset="1" stop-color="#3A3A3A"/>
</linearGradient>
<linearGradient id="paint19_linear" x1="5.16595" y1="0" x2="5.16595" y2="5.40846" gradientUnits="userSpaceOnUse">
<stop stop-color="#1B1B1B"/>
<stop offset="0.869792"/>
<stop offset="1" stop-color="#3A3A3A"/>
</linearGradient>
<linearGradient id="paint20_linear" x1="5.16595" y1="0" x2="5.16595" y2="10.3319" gradientUnits="userSpaceOnUse">
<stop stop-color="#1B1B1B"/>
<stop offset="0.869792"/>
<stop offset="1" stop-color="#3A3A3A"/>
</linearGradient>
<linearGradient id="paint21_linear" x1="5.16595" y1="0" x2="5.16595" y2="5.40836" gradientUnits="userSpaceOnUse">
<stop stop-color="#1B1B1B"/>
<stop offset="0.869792"/>
<stop offset="1" stop-color="#3A3A3A"/>
</linearGradient>
<linearGradient id="paint22_linear" x1="5.16595" y1="0" x2="5.16595" y2="10.3319" gradientUnits="userSpaceOnUse">
<stop stop-color="#1B1B1B"/>
<stop offset="0.869792"/>
<stop offset="1" stop-color="#3A3A3A"/>
</linearGradient>
<linearGradient id="paint23_linear" x1="5.16595" y1="0" x2="5.16595" y2="10.3319" gradientUnits="userSpaceOnUse">
<stop stop-color="#1B1B1B"/>
<stop offset="0.869792"/>
<stop offset="1" stop-color="#3A3A3A"/>
</linearGradient>
<linearGradient id="paint24_linear" x1="5.16595" y1="0" x2="5.16595" y2="10.3319" gradientUnits="userSpaceOnUse">
<stop stop-color="#1B1B1B"/>
<stop offset="0.869792"/>
<stop offset="1" stop-color="#3A3A3A"/>
</linearGradient>
<linearGradient id="paint25_linear" x1="5.16595" y1="0" x2="5.16595" y2="10.3319" gradientUnits="userSpaceOnUse">
<stop stop-color="#1B1B1B"/>
<stop offset="0.869792"/>
<stop offset="1" stop-color="#3A3A3A"/>
</linearGradient>
<linearGradient id="paint26_linear" x1="6.32376" y1="0" x2="6.32376" y2="10.3319" gradientUnits="userSpaceOnUse">
<stop stop-color="#1B1B1B"/>
<stop offset="0.869792"/>
<stop offset="1" stop-color="#3A3A3A"/>
</linearGradient>
<linearGradient id="paint27_linear" x1="6.32376" y1="0" x2="6.32376" y2="10.3319" gradientUnits="userSpaceOnUse">
<stop stop-color="#1B1B1B"/>
<stop offset="0.869792"/>
<stop offset="1" stop-color="#3A3A3A"/>
</linearGradient>
<linearGradient id="paint28_linear" x1="30.2" y1="0" x2="30.2" y2="10.3319" gradientUnits="userSpaceOnUse">
<stop stop-color="#1B1B1B"/>
<stop offset="0.869792"/>
<stop offset="1" stop-color="#3A3A3A"/>
</linearGradient>
<linearGradient id="paint29_linear" x1="5.16595" y1="0" x2="5.16595" y2="10.3319" gradientUnits="userSpaceOnUse">
<stop stop-color="#1B1B1B"/>
<stop offset="0.869792"/>
<stop offset="1" stop-color="#3A3A3A"/>
</linearGradient>
<linearGradient id="paint30_linear" x1="5.16595" y1="0" x2="5.16595" y2="10.3319" gradientUnits="userSpaceOnUse">
<stop stop-color="#1B1B1B"/>
<stop offset="0.869792"/>
<stop offset="1" stop-color="#3A3A3A"/>
</linearGradient>
<linearGradient id="paint31_linear" x1="5.16595" y1="0" x2="5.16595" y2="10.3319" gradientUnits="userSpaceOnUse">
<stop stop-color="#1B1B1B"/>
<stop offset="0.869792"/>
<stop offset="1" stop-color="#3A3A3A"/>
</linearGradient>
<linearGradient id="paint32_linear" x1="5.16595" y1="0" x2="5.16595" y2="10.3319" gradientUnits="userSpaceOnUse">
<stop stop-color="#1B1B1B"/>
<stop offset="0.869792"/>
<stop offset="1" stop-color="#3A3A3A"/>
</linearGradient>
<linearGradient id="paint33_linear" x1="5.16595" y1="0" x2="5.16595" y2="10.3319" gradientUnits="userSpaceOnUse">
<stop stop-color="#1B1B1B"/>
<stop offset="0.869792"/>
<stop offset="1" stop-color="#3A3A3A"/>
</linearGradient>
<linearGradient id="paint34_linear" x1="5.16595" y1="0" x2="5.16595" y2="10.3319" gradientUnits="userSpaceOnUse">
<stop stop-color="#1B1B1B"/>
<stop offset="0.869792"/>
<stop offset="1" stop-color="#3A3A3A"/>
</linearGradient>
<linearGradient id="paint35_linear" x1="5.16595" y1="0" x2="5.16595" y2="10.3319" gradientUnits="userSpaceOnUse">
<stop stop-color="#1B1B1B"/>
<stop offset="0.869792"/>
<stop offset="1" stop-color="#3A3A3A"/>
</linearGradient>
<linearGradient id="paint36_linear" x1="5.16595" y1="0" x2="5.16595" y2="10.3319" gradientUnits="userSpaceOnUse">
<stop stop-color="#1B1B1B"/>
<stop offset="0.869792"/>
<stop offset="1" stop-color="#3A3A3A"/>
</linearGradient>
<linearGradient id="paint37_linear" x1="5.16595" y1="0" x2="5.16595" y2="10.3319" gradientUnits="userSpaceOnUse">
<stop stop-color="#1B1B1B"/>
<stop offset="0.869792"/>
<stop offset="1" stop-color="#3A3A3A"/>
</linearGradient>
<linearGradient id="paint38_linear" x1="5.16595" y1="0" x2="5.16595" y2="10.3319" gradientUnits="userSpaceOnUse">
<stop stop-color="#1B1B1B"/>
<stop offset="0.869792"/>
<stop offset="1" stop-color="#3A3A3A"/>
</linearGradient>
<linearGradient id="paint39_linear" x1="5.16595" y1="0" x2="5.16595" y2="10.3319" gradientUnits="userSpaceOnUse">
<stop stop-color="#1B1B1B"/>
<stop offset="0.869792"/>
<stop offset="1" stop-color="#3A3A3A"/>
</linearGradient>
<linearGradient id="paint40_linear" x1="5.16595" y1="0" x2="5.16595" y2="10.3319" gradientUnits="userSpaceOnUse">
<stop stop-color="#1B1B1B"/>
<stop offset="0.869792"/>
<stop offset="1" stop-color="#3A3A3A"/>
</linearGradient>
<linearGradient id="paint41_linear" x1="5.16595" y1="0" x2="5.16595" y2="10.3319" gradientUnits="userSpaceOnUse">
<stop stop-color="#1B1B1B"/>
<stop offset="0.869792"/>
<stop offset="1" stop-color="#3A3A3A"/>
</linearGradient>
<linearGradient id="paint42_linear" x1="5.16595" y1="0" x2="5.16595" y2="10.3319" gradientUnits="userSpaceOnUse">
<stop stop-color="#1B1B1B"/>
<stop offset="0.869792"/>
<stop offset="1" stop-color="#3A3A3A"/>
</linearGradient>
<linearGradient id="paint43_linear" x1="5.16595" y1="0" x2="5.16595" y2="10.3319" gradientUnits="userSpaceOnUse">
<stop stop-color="#1B1B1B"/>
<stop offset="0.869792"/>
<stop offset="1" stop-color="#3A3A3A"/>
</linearGradient>
<linearGradient id="paint44_linear" x1="5.16595" y1="0" x2="5.16595" y2="10.3319" gradientUnits="userSpaceOnUse">
<stop stop-color="#1B1B1B"/>
<stop offset="0.869792"/>
<stop offset="1" stop-color="#3A3A3A"/>
</linearGradient>
<linearGradient id="paint45_linear" x1="5.16595" y1="0" x2="5.16595" y2="10.3319" gradientUnits="userSpaceOnUse">
<stop stop-color="#1B1B1B"/>
<stop offset="0.869792"/>
<stop offset="1" stop-color="#3A3A3A"/>
</linearGradient>
<linearGradient id="paint46_linear" x1="5.16595" y1="0" x2="5.16595" y2="10.3319" gradientUnits="userSpaceOnUse">
<stop stop-color="#1B1B1B"/>
<stop offset="0.869792"/>
<stop offset="1" stop-color="#3A3A3A"/>
</linearGradient>
<linearGradient id="paint47_linear" x1="5.16595" y1="0" x2="5.16595" y2="10.3319" gradientUnits="userSpaceOnUse">
<stop stop-color="#1B1B1B"/>
<stop offset="0.869792"/>
<stop offset="1" stop-color="#3A3A3A"/>
</linearGradient>
<linearGradient id="paint48_linear" x1="5.16595" y1="0" x2="5.16595" y2="10.3319" gradientUnits="userSpaceOnUse">
<stop stop-color="#1B1B1B"/>
<stop offset="0.869792"/>
<stop offset="1" stop-color="#3A3A3A"/>
</linearGradient>
<linearGradient id="paint49_linear" x1="5.16595" y1="0" x2="5.16595" y2="10.3319" gradientUnits="userSpaceOnUse">
<stop stop-color="#1B1B1B"/>
<stop offset="0.869792"/>
<stop offset="1" stop-color="#3A3A3A"/>
</linearGradient>
<linearGradient id="paint50_linear" x1="5.16595" y1="0" x2="5.16595" y2="10.3319" gradientUnits="userSpaceOnUse">
<stop stop-color="#1B1B1B"/>
<stop offset="0.869792"/>
<stop offset="1" stop-color="#3A3A3A"/>
</linearGradient>
<linearGradient id="paint51_linear" x1="5.16595" y1="0" x2="5.16595" y2="10.3319" gradientUnits="userSpaceOnUse">
<stop stop-color="#1B1B1B"/>
<stop offset="0.869792"/>
<stop offset="1" stop-color="#3A3A3A"/>
</linearGradient>
<linearGradient id="paint52_linear" x1="5.16595" y1="0" x2="5.16595" y2="10.3319" gradientUnits="userSpaceOnUse">
<stop stop-color="#1B1B1B"/>
<stop offset="0.869792"/>
<stop offset="1" stop-color="#3A3A3A"/>
</linearGradient>
<linearGradient id="paint53_linear" x1="5.16595" y1="0" x2="5.16595" y2="10.3319" gradientUnits="userSpaceOnUse">
<stop stop-color="#1B1B1B"/>
<stop offset="0.869792"/>
<stop offset="1" stop-color="#3A3A3A"/>
</linearGradient>
<linearGradient id="paint54_linear" x1="5.16595" y1="0" x2="5.16595" y2="10.3319" gradientUnits="userSpaceOnUse">
<stop stop-color="#1B1B1B"/>
<stop offset="0.869792"/>
<stop offset="1" stop-color="#3A3A3A"/>
</linearGradient>
<linearGradient id="paint55_linear" x1="5.16595" y1="0" x2="5.16595" y2="10.3319" gradientUnits="userSpaceOnUse">
<stop stop-color="#1B1B1B"/>
<stop offset="0.869792"/>
<stop offset="1" stop-color="#3A3A3A"/>
</linearGradient>
<linearGradient id="paint56_linear" x1="5.16595" y1="0" x2="5.16595" y2="10.3319" gradientUnits="userSpaceOnUse">
<stop stop-color="#1B1B1B"/>
<stop offset="0.869792"/>
<stop offset="1" stop-color="#3A3A3A"/>
</linearGradient>
<linearGradient id="paint57_linear" x1="5.16595" y1="0" x2="5.16595" y2="10.3319" gradientUnits="userSpaceOnUse">
<stop stop-color="#1B1B1B"/>
<stop offset="0.869792"/>
<stop offset="1" stop-color="#3A3A3A"/>
</linearGradient>
<linearGradient id="paint58_linear" x1="5.16595" y1="0" x2="5.16595" y2="10.3319" gradientUnits="userSpaceOnUse">
<stop stop-color="#1B1B1B"/>
<stop offset="0.869792"/>
<stop offset="1" stop-color="#3A3A3A"/>
</linearGradient>
<linearGradient id="paint59_linear" x1="5.16595" y1="0" x2="5.16595" y2="10.3319" gradientUnits="userSpaceOnUse">
<stop stop-color="#1B1B1B"/>
<stop offset="0.869792"/>
<stop offset="1" stop-color="#3A3A3A"/>
</linearGradient>
<linearGradient id="paint60_linear" x1="5.16595" y1="0" x2="5.16595" y2="10.3319" gradientUnits="userSpaceOnUse">
<stop stop-color="#1B1B1B"/>
<stop offset="0.869792"/>
<stop offset="1" stop-color="#3A3A3A"/>
</linearGradient>
<linearGradient id="paint61_linear" x1="5.16595" y1="0" x2="5.16595" y2="10.3319" gradientUnits="userSpaceOnUse">
<stop stop-color="#1B1B1B"/>
<stop offset="0.869792"/>
<stop offset="1" stop-color="#3A3A3A"/>
</linearGradient>
<linearGradient id="paint62_linear" x1="5.16595" y1="0" x2="5.16595" y2="10.3319" gradientUnits="userSpaceOnUse">
<stop stop-color="#1B1B1B"/>
<stop offset="0.869792"/>
<stop offset="1" stop-color="#3A3A3A"/>
</linearGradient>
<linearGradient id="paint63_linear" x1="5.16595" y1="0" x2="5.16595" y2="10.3319" gradientUnits="userSpaceOnUse">
<stop stop-color="#1B1B1B"/>
<stop offset="0.869792"/>
<stop offset="1" stop-color="#3A3A3A"/>
</linearGradient>
<linearGradient id="paint64_linear" x1="7.22027" y1="0" x2="7.22027" y2="10.3319" gradientUnits="userSpaceOnUse">
<stop stop-color="#1B1B1B"/>
<stop offset="0.869792"/>
<stop offset="1" stop-color="#3A3A3A"/>
</linearGradient>
<linearGradient id="paint65_linear" x1="7.22027" y1="0" x2="7.22027" y2="10.3319" gradientUnits="userSpaceOnUse">
<stop stop-color="#1B1B1B"/>
<stop offset="0.869792"/>
<stop offset="1" stop-color="#3A3A3A"/>
</linearGradient>
<linearGradient id="paint66_linear" x1="9.35494" y1="0" x2="9.35494" y2="10.3319" gradientUnits="userSpaceOnUse">
<stop stop-color="#1B1B1B"/>
<stop offset="0.869792"/>
<stop offset="1" stop-color="#3A3A3A"/>
</linearGradient>
<linearGradient id="paint67_linear" x1="12.4604" y1="0" x2="12.4604" y2="10.3319" gradientUnits="userSpaceOnUse">
<stop stop-color="#1B1B1B"/>
<stop offset="0.869792"/>
<stop offset="1" stop-color="#3A3A3A"/>
</linearGradient>
<radialGradient id="paint68_radial" cx="0" cy="0" r="1" gradientUnits="userSpaceOnUse" gradientTransform="translate(1.264 1.264) rotate(90) scale(1.264)">
<stop stop-color="white" stop-opacity="0.33"/>
<stop offset="1" stop-color="white" stop-opacity="0"/>
</radialGradient>
<linearGradient id="paint69_linear" x1="687.509" y1="216.759" x2="687.509" y2="256.457" gradientUnits="userSpaceOnUse">
<stop stop-color="white" stop-opacity="0.6"/>
<stop offset="1" stop-color="white" stop-opacity="0"/>
</linearGradient>
<linearGradient id="paint70_linear" x1="789.849" y1="275.606" x2="789.849" y2="315.303" gradientUnits="userSpaceOnUse">
<stop stop-color="white" stop-opacity="0"/>
<stop offset="0.515625" stop-color="white" stop-opacity="0.45"/>
<stop offset="1" stop-color="white" stop-opacity="0"/>
</linearGradient>
<linearGradient id="paint71_linear" x1="844.889" y1="3.5141" x2="844.889" y2="43.2116" gradientUnits="userSpaceOnUse">
<stop stop-color="white" stop-opacity="0.6"/>
<stop offset="1" stop-color="white" stop-opacity="0"/>
</linearGradient>
<linearGradient id="paint72_linear" x1="829.5" y1="168.172" x2="791.714" y2="240.979" gradientUnits="userSpaceOnUse">
<stop stop-color="#E982A5"/>
<stop offset="0.307087" stop-color="#9EC3E9" stop-opacity="0"/>
</linearGradient>
<linearGradient id="paint73_linear" x1="18.7661" y1="503.339" x2="264.173" y2="485.419" gradientUnits="userSpaceOnUse">
<stop stop-color="#223136"/>
<stop offset="0.0989583" stop-color="#969696"/>
<stop offset="0.28125" stop-color="#8F8588"/>
<stop offset="0.380208" stop-color="#969696"/>
<stop offset="0.505208" stop-color="#969696"/>
<stop offset="0.588542" stop-color="#CDCDCD"/>
<stop offset="0.651042" stop-color="#969696"/>
<stop offset="0.802083" stop-color="#9E9499"/>
<stop offset="1" stop-color="#DCDCDC"/>
</linearGradient>
<linearGradient id="paint74_linear" x1="103.001" y1="-22.1736" x2="28.0194" y2="169.403" gradientUnits="userSpaceOnUse">
<stop stop-color="#272A2C"/>
<stop offset="0.807292" stop-color="#1C1C1C"/>
<stop offset="1" stop-color="#3D3735"/>
</linearGradient>
<linearGradient id="paint75_linear" x1="236.171" y1="356.186" x2="70.285" y2="297.379" gradientUnits="userSpaceOnUse">
<stop stop-color="white" stop-opacity="0"/>
<stop offset="0.277461" stop-color="white"/>
<stop offset="1" stop-color="white" stop-opacity="0"/>
</linearGradient>
<linearGradient id="paint76_linear" x1="42.3009" y1="358.641" x2="51.1978" y2="363.964" gradientUnits="userSpaceOnUse">
<stop stop-color="#7B7A7F"/>
<stop offset="0.21875" stop-color="#C5C4C9"/>
<stop offset="0.760417" stop-color="#C5C4C9"/>
<stop offset="1" stop-color="#7B7A7F"/>
</linearGradient>
<linearGradient id="paint77_linear" x1="42.3009" y1="358.641" x2="51.1978" y2="363.964" gradientUnits="userSpaceOnUse">
<stop stop-color="#7B7A7F"/>
<stop offset="0.21875" stop-color="#C5C4C9"/>
<stop offset="0.760417" stop-color="#C5C4C9"/>
<stop offset="1" stop-color="#7B7A7F"/>
</linearGradient>
<linearGradient id="paint78_linear" x1="42.3009" y1="358.641" x2="51.1978" y2="363.964" gradientUnits="userSpaceOnUse">
<stop stop-color="#7B7A7F"/>
<stop offset="0.21875" stop-color="#C5C4C9"/>
<stop offset="0.760417" stop-color="#C5C4C9"/>
<stop offset="1" stop-color="#7B7A7F"/>
</linearGradient>
<linearGradient id="paint79_linear" x1="42.3009" y1="358.641" x2="51.1978" y2="363.964" gradientUnits="userSpaceOnUse">
<stop stop-color="#7B7A7F"/>
<stop offset="0.21875" stop-color="#C5C4C9"/>
<stop offset="0.760417" stop-color="#C5C4C9"/>
<stop offset="1" stop-color="#7B7A7F"/>
</linearGradient>
<linearGradient id="paint80_linear" x1="42.3009" y1="358.641" x2="51.1978" y2="363.964" gradientUnits="userSpaceOnUse">
<stop stop-color="#7B7A7F"/>
<stop offset="0.21875" stop-color="#C5C4C9"/>
<stop offset="0.760417" stop-color="#C5C4C9"/>
<stop offset="1" stop-color="#7B7A7F"/>
</linearGradient>
<linearGradient id="paint81_linear" x1="10.9493" y1="-0.204012" x2="4.71155" y2="5.99783" gradientUnits="userSpaceOnUse">
<stop stop-color="#110F0F"/>
<stop offset="0.640625" stop-color="#2C2B2B"/>
<stop offset="0.828125" stop-color="#464646"/>
<stop offset="1" stop-color="#25201F"/>
</linearGradient>
<linearGradient id="paint82_linear" x1="32.231" y1="352.747" x2="41.1278" y2="358.07" gradientUnits="userSpaceOnUse">
<stop stop-color="#7B7A7F"/>
<stop offset="0.21875" stop-color="#C5C4C9"/>
<stop offset="0.760417" stop-color="#C5C4C9"/>
<stop offset="1" stop-color="#7B7A7F"/>
</linearGradient>
<linearGradient id="paint83_linear" x1="32.231" y1="352.747" x2="41.1278" y2="358.07" gradientUnits="userSpaceOnUse">
<stop stop-color="#7B7A7F"/>
<stop offset="0.21875" stop-color="#C5C4C9"/>
<stop offset="0.760417" stop-color="#C5C4C9"/>
<stop offset="1" stop-color="#7B7A7F"/>
</linearGradient>
<linearGradient id="paint84_linear" x1="32.231" y1="352.747" x2="41.1278" y2="358.07" gradientUnits="userSpaceOnUse">
<stop stop-color="#7B7A7F"/>
<stop offset="0.21875" stop-color="#C5C4C9"/>
<stop offset="0.760417" stop-color="#C5C4C9"/>
<stop offset="1" stop-color="#7B7A7F"/>
</linearGradient>
<linearGradient id="paint85_linear" x1="32.231" y1="352.747" x2="41.1278" y2="358.07" gradientUnits="userSpaceOnUse">
<stop stop-color="#7B7A7F"/>
<stop offset="0.21875" stop-color="#C5C4C9"/>
<stop offset="0.760417" stop-color="#C5C4C9"/>
<stop offset="1" stop-color="#7B7A7F"/>
</linearGradient>
<linearGradient id="paint86_linear" x1="32.231" y1="352.747" x2="41.1278" y2="358.07" gradientUnits="userSpaceOnUse">
<stop stop-color="#7B7A7F"/>
<stop offset="0.21875" stop-color="#C5C4C9"/>
<stop offset="0.760417" stop-color="#C5C4C9"/>
<stop offset="1" stop-color="#7B7A7F"/>
</linearGradient>
<radialGradient id="paint87_radial" cx="0" cy="0" r="1" gradientUnits="userSpaceOnUse" gradientTransform="translate(0.987211 0.987211) rotate(90) scale(0.987211)">
<stop stop-color="white" stop-opacity="0.27"/>
<stop offset="1" stop-color="white" stop-opacity="0"/>
</radialGradient>
<linearGradient id="paint88_linear" x1="0.91265" y1="2.45645" x2="9.79162" y2="9.26089" gradientUnits="userSpaceOnUse">
<stop stop-color="#FB8791"/>
<stop offset="1" stop-color="#C892F4"/>
</linearGradient>
<linearGradient id="paint89_linear" x1="0.272129" y1="0.732451" x2="2.91962" y2="2.76137" gradientUnits="userSpaceOnUse">
<stop stop-color="#FB8791"/>
<stop offset="1" stop-color="#F4C192"/>
</linearGradient>
<linearGradient id="paint90_linear" x1="0.272129" y1="0.732451" x2="2.91962" y2="2.76137" gradientUnits="userSpaceOnUse">
<stop stop-color="#FB8791"/>
<stop offset="1" stop-color="#F4C192"/>
</linearGradient>
<linearGradient id="paint91_linear" x1="0.272129" y1="0.732451" x2="2.91962" y2="2.76137" gradientUnits="userSpaceOnUse">
<stop stop-color="#FB8791"/>
<stop offset="1" stop-color="#F4C192"/>
</linearGradient>
<linearGradient id="paint92_linear" x1="0.272129" y1="0.732451" x2="2.91962" y2="2.76137" gradientUnits="userSpaceOnUse">
<stop stop-color="#FB8791"/>
<stop offset="1" stop-color="#F4C192"/>
</linearGradient>
<linearGradient id="paint93_linear" x1="0.91265" y1="2.45645" x2="9.79162" y2="9.26089" gradientUnits="userSpaceOnUse">
<stop stop-color="#FB8791"/>
<stop offset="1" stop-color="#C892F4"/>
</linearGradient>
<linearGradient id="paint94_linear" x1="0.272129" y1="0.732451" x2="2.91962" y2="2.76137" gradientUnits="userSpaceOnUse">
<stop stop-color="#FB8791"/>
<stop offset="1" stop-color="#F4C192"/>
</linearGradient>
<linearGradient id="paint95_linear" x1="0.272129" y1="0.732451" x2="2.91962" y2="2.76137" gradientUnits="userSpaceOnUse">
<stop stop-color="#FB8791"/>
<stop offset="1" stop-color="#F4C192"/>
</linearGradient>
<linearGradient id="paint96_linear" x1="0.91265" y1="2.45645" x2="9.79162" y2="9.26089" gradientUnits="userSpaceOnUse">
<stop stop-color="#FB8791"/>
<stop offset="1" stop-color="#C892F4"/>
</linearGradient>
<linearGradient id="paint97_linear" x1="0.272129" y1="0.732451" x2="2.91962" y2="2.76137" gradientUnits="userSpaceOnUse">
<stop stop-color="#FB8791"/>
<stop offset="1" stop-color="#F4C192"/>
</linearGradient>
<linearGradient id="paint98_linear" x1="0.272129" y1="0.732451" x2="2.91962" y2="2.76137" gradientUnits="userSpaceOnUse">
<stop stop-color="#FB8791"/>
<stop offset="1" stop-color="#F4C192"/>
</linearGradient>
</defs>
</svg>
