<svg width="90" height="90" viewBox="0 0 90 90" fill="none" xmlns="http://www.w3.org/2000/svg">
<rect x="45" width="63.6396" height="63.6396" rx="18" transform="rotate(45 45 0)" fill="white"/>
<path d="M50.625 39.3384C50.625 33.1225 45.5909 28.0884 39.375 28.0884C33.1591 28.0884 28.125 33.1225 28.125 39.3384C28.125 45.5542 33.1591 50.5884 39.375 50.5884C39.375 44.3725 44.4091 39.3384 50.625 39.3384Z" fill="#FE823C"/>
<path d="M50.625 39.3384C50.625 45.5542 45.5909 50.5884 39.375 50.5884C39.375 56.8042 44.4091 61.8384 50.625 61.8384C56.8409 61.8384 61.875 56.8042 61.875 50.5884C61.875 44.3725 56.8409 39.3384 50.625 39.3384Z" fill="#FE823C"/>
</svg>
