<svg width="1883" height="400" viewBox="0 0 1883 400" fill="none" xmlns="http://www.w3.org/2000/svg">
<path d="M557 140.016H593V265.97H557V140.016Z" fill="black"/>
<path fill-rule="evenodd" clip-rule="evenodd" d="M520.451 267.971C557.986 267.971 584.938 235.776 584.938 202.971C584.938 171.985 558.165 137.971 520.451 137.971C484.384 137.971 457 167.072 457 202.971C457 238.869 484.384 267.971 520.451 267.971ZM524.403 235.115C542.895 235.115 557 221.338 557 202.97C557 184.602 542.895 170.826 524.403 170.826C505.91 170.826 491.588 185.217 491.588 202.97C491.588 220.723 505.91 235.115 524.403 235.115Z" fill="black"/>
<path fill-rule="evenodd" clip-rule="evenodd" d="M737.614 175.13L704.649 190.444C700.443 180.971 691.576 173.348 679.584 173.348C662.535 173.348 649.332 186.616 649.332 202.982C649.332 219.349 662.535 232.617 679.584 232.617C691.85 232.617 700.846 225.75 704.929 215.802L737.827 231.315C727.72 253.018 706.034 267.982 679 267.982C642.6 267.982 614 238.881 614 202.982C614 167.084 643.9 137.982 679 137.982C704.355 137.982 726.996 153.167 737.614 175.13Z" fill="black"/>
<path d="M758 139.992H794V265.991H758V139.992Z" fill="black"/>
<path d="M838 188.992L874 185.992V265.992H838V188.992Z" fill="black"/>
<path d="M918 188.992L954 185.992V265.992H918V188.992Z" fill="black"/>
<path d="M826.264 137.982C858.122 137.982 873.999 162.391 873.999 187.982L837.999 194.675C837.999 183.609 827.999 173.646 815.999 173.646C803.999 173.646 793.999 183.99 793.999 195.99L784.465 182.533C780.712 173.646 794.312 137.982 826.264 137.982Z" fill="black"/>
<path d="M906.264 137.982C938.122 137.982 953.999 162.391 953.999 187.982L917.999 194.675C917.999 183.609 907.999 173.646 895.999 173.646C883.999 173.646 873.999 183.99 873.999 195.99L864.465 182.533C860.712 173.646 874.312 137.982 906.264 137.982Z" fill="black"/>
<path d="M906.264 137.982C938.122 137.982 954 162.391 954 187.982L918 190.982C918 179.916 908 170.982 896 170.982C884 170.982 874 178.982 874 190.982L856 171.982C864 153.982 874.313 137.982 906.264 137.982Z" fill="black"/>
<path d="M1032.91 242.436C1032.91 255.39 1022.41 265.89 1009.45 265.89C996.501 265.89 986 255.39 986 242.436C986 229.483 996.501 218.982 1009.45 218.982C1022.41 218.982 1032.91 229.483 1032.91 242.436Z" fill="black"/>
<path d="M160.432 56.5682C191.673 25.3262 242.327 25.3263 273.569 56.5682L360.431 143.431C391.673 174.673 391.673 225.326 360.431 256.568L273.569 343.431C242.327 374.673 191.673 374.673 160.432 343.431L73.5686 256.568C42.3267 225.326 42.3267 174.673 73.5687 143.431L160.432 56.5682Z" fill="#FE823C"/>
<path d="M242 174.838C242 147.212 219.626 124.838 192 124.838C164.374 124.838 142 147.212 142 174.838C142 202.464 164.374 224.838 192 224.838C192 197.212 214.374 174.838 242 174.838Z" fill="white"/>
<path d="M242 174.838C242 202.464 219.626 224.838 192 224.838C192 252.464 214.374 274.838 242 274.838C269.626 274.838 292 252.464 292 224.838C292 197.212 269.626 174.838 242 174.838Z" fill="white"/>
<mask id="mask0" mask-type="alpha" maskUnits="userSpaceOnUse" x="1065" y="77" width="768" height="246">
<path d="M1164.93 83.0918H1200.93V266.292H1164.93V83.0918Z" fill="black"/>
<path fill-rule="evenodd" clip-rule="evenodd" d="M1128.45 267.982C1165.99 267.982 1192.94 235.787 1192.94 202.982C1192.94 171.996 1166.17 137.982 1128.45 137.982C1092.38 137.982 1065 167.084 1065 202.982C1065 238.881 1092.38 267.982 1128.45 267.982ZM1132.4 235.127C1150.89 235.127 1165 221.35 1165 202.982C1165 184.614 1150.89 170.837 1132.4 170.837C1113.91 170.837 1099.59 185.229 1099.59 202.982C1099.59 220.735 1113.91 235.127 1132.4 235.127Z" fill="black"/>
<path fill-rule="evenodd" clip-rule="evenodd" d="M1284.58 137.994C1249.48 137.994 1219.58 167.096 1219.58 202.994V202.994C1219.58 238.893 1248.18 267.994 1284.58 267.994C1311.01 267.994 1332.41 254.811 1342.15 239.397L1312.48 225.401C1307.34 230.698 1300.37 234.544 1292.64 236.227C1290.14 236.844 1287.47 237.171 1284.65 237.171C1284.52 237.171 1284.4 237.17 1284.27 237.169C1284.14 237.17 1284.01 237.17 1283.88 237.17C1265.01 237.17 1250.39 222.185 1250.39 203.7C1250.39 203.586 1250.39 203.474 1250.39 203.362C1250.39 203.24 1250.39 203.117 1250.39 202.994C1250.39 184.119 1265.34 168.817 1284.65 168.817C1301.47 168.817 1312.86 182.295 1315.52 196.611C1319.23 196.538 1321.37 198.353 1321.37 204.308C1321.37 205.799 1321.26 207.263 1321.04 208.695L1344.86 215.766L1347.22 216.006C1354.93 166.978 1319.68 137.994 1284.58 137.994Z" fill="black"/>
<path d="M1236.71 188.006H1316.95L1347.22 216.006H1343.65H1237.17L1236.71 188.006Z" fill="black"/>
<path fill-rule="evenodd" clip-rule="evenodd" d="M1409.94 138.511C1441.82 134.715 1460.47 152.624 1466.04 166.24L1435.74 178.636C1433.71 175.119 1426.73 168.659 1417.86 168.659C1406.79 168.659 1404.6 172.852 1403.83 175.064C1402.81 178.019 1404.38 180.75 1408.02 182.093C1411.49 183.373 1415.2 184.292 1419.09 185.257C1421.15 185.766 1423.26 186.289 1425.42 186.884L1425.42 186.883L1425.67 186.953C1433.81 189.185 1442.97 192.013 1453.71 200.116C1461.37 205.895 1466 213.937 1466.96 222.916C1467.88 231.482 1465.33 239.459 1461.46 245.798C1453.89 258.204 1439.12 267.915 1421.95 267.915L1421.77 267.915C1417.75 267.916 1407.02 267.919 1395.66 264.727C1384.13 261.49 1369.37 254.2 1361.58 237.746L1392.06 223.323C1392.15 223.563 1393.84 227.762 1399.99 232.323C1406.33 237.021 1413.98 237.727 1421.96 236.01C1430.92 234.084 1432.33 228.3 1429.67 225.682C1426.56 222.611 1420.34 220.845 1414.16 219.093C1413.42 218.883 1412.68 218.674 1411.95 218.462L1411.95 218.454C1411.73 218.395 1411.52 218.336 1411.3 218.275C1411.17 218.236 1411.04 218.197 1410.9 218.158L1410.89 218.157C1404.51 216.355 1396.62 213.776 1387.12 208.688C1379.38 204.536 1372.88 198.465 1369.28 190.499C1365.6 182.346 1365.54 173.44 1368.74 165.397C1374.98 149.72 1391.53 140.702 1409.94 138.511Z" fill="black"/>
<path d="M1490.58 139.963H1526.58V266.287H1490.58V139.963Z" fill="black"/>
<path d="M1530.58 99.9941C1530.58 112.144 1520.73 121.994 1508.58 121.994C1496.43 121.994 1486.58 112.144 1486.58 99.9941C1486.58 87.8439 1496.43 77.9941 1508.58 77.9941C1520.73 77.9941 1530.58 87.8439 1530.58 99.9941Z" fill="black"/>
<path d="M1649.7 139.906H1685.7V255.957H1649.7V139.906Z" fill="black"/>
<path fill-rule="evenodd" clip-rule="evenodd" d="M1559.7 294.278C1570.7 310.278 1590.44 322.278 1616.47 322.278C1655.24 322.278 1685.7 294.192 1685.7 255.957L1649.7 255.957C1649.5 273.447 1634.47 288.769 1616.6 288.769C1607.68 288.769 1594.25 281.781 1588.25 274.781L1559.7 294.278Z" fill="black"/>
<path fill-rule="evenodd" clip-rule="evenodd" d="M1613.03 267.982C1650.57 267.982 1677.52 235.787 1677.52 202.982C1677.52 171.996 1650.75 137.982 1613.03 137.982C1576.97 137.982 1549.58 167.084 1549.58 202.982C1549.58 238.881 1576.97 267.982 1613.03 267.982ZM1616.99 235.127C1635.48 235.127 1649.58 221.35 1649.58 202.982C1649.58 184.614 1635.48 170.837 1616.99 170.837C1598.49 170.837 1584.17 185.229 1584.17 202.982C1584.17 220.735 1598.49 235.127 1616.99 235.127Z" fill="black"/>
<path d="M1709.58 140.121H1745.58V266.122H1709.58V140.121Z" fill="black"/>
<path d="M1796.77 196.879L1832.77 187.963V266.231H1796.77L1796.77 196.879Z" fill="black"/>
<path d="M1780.47 137.99C1815.37 137.99 1832.77 162.398 1832.77 187.99L1796.77 198.654C1796.77 185.229 1789.03 173.654 1771.5 173.654C1753.69 173.654 1745.58 186.654 1745.58 198.654L1734.67 182.541C1728.67 170.176 1745.46 137.99 1780.47 137.99Z" fill="black"/>
</mask>
<g mask="url(#mask0)">
<path d="M1049 32.9824H1884V363.982H1049V32.9824Z" fill="url(#paint0_linear)"/>
</g>
<defs>
<linearGradient id="paint0_linear" x1="1071.61" y1="346.485" x2="1753.89" y2="11.8466" gradientUnits="userSpaceOnUse">
<stop stop-color="#F87615"/>
<stop offset="1" stop-color="#FECE5C"/>
</linearGradient>
</defs>
</svg>
